<?xml version="1.0" encoding="UTF-8" standalone="no"?>
<!-- Created with Inkscape (http://www.inkscape.org/) -->

<svg
   xmlns:dc="http://purl.org/dc/elements/1.1/"
   xmlns:cc="http://creativecommons.org/ns#"
   xmlns:rdf="http://www.w3.org/1999/02/22-rdf-syntax-ns#"
   xmlns:svg="http://www.w3.org/2000/svg"
   xmlns="http://www.w3.org/2000/svg"
   xmlns:sodipodi="http://sodipodi.sourceforge.net/DTD/sodipodi-0.dtd"
   xmlns:inkscape="http://www.inkscape.org/namespaces/inkscape"
   width="135.90245mm"
   height="81.452667mm"
   viewBox="0 0 481.54414 288.61181"
   id="svg2"
   version="1.1"
   inkscape:version="0.91 r13725"
   sodipodi:docname="databox.svg">
  <defs
     id="defs4">
    <inkscape:path-effect
       effect="sketch"
       id="path-effect3405"
       is_visible="true"
       nbiter_approxstrokes="5"
       strokelength="100"
       strokelength_rdm="0.3;1"
       strokeoverlap="0.3"
       strokeoverlap_rdm="0.3;1"
       ends_tolerance="0.1;1"
       parallel_offset="5;1"
       tremble_size="5;1"
       tremble_frequency="1"
       nbtangents="5"
       tgt_places_rdmness="1;1"
       tgtscale="10"
       tgtlength="100"
       tgtlength_rdm="0.3;1" />
    <inkscape:path-effect
       tgtlength_rdm="0.3;1"
       tgtlength="100"
       tgtscale="10"
       tgt_places_rdmness="1;1"
       nbtangents="5"
       tremble_frequency="1"
       tremble_size="5;1"
       parallel_offset="5;1"
       ends_tolerance="0.1;1"
       strokeoverlap_rdm="0.3;1"
       strokeoverlap="0.3"
       strokelength_rdm="0.3;1"
       strokelength="100"
       nbiter_approxstrokes="5"
       is_visible="true"
       id="path-effect3399"
       effect="sketch" />
    <inkscape:path-effect
       effect="sketch"
       id="path-effect3393"
       is_visible="true"
       nbiter_approxstrokes="5"
       strokelength="100"
       strokelength_rdm="0.3;1"
       strokeoverlap="0.3"
       strokeoverlap_rdm="0.3;1"
       ends_tolerance="0.1;1"
       parallel_offset="5;1"
       tremble_size="5;1"
       tremble_frequency="1"
       nbtangents="5"
       tgt_places_rdmness="1;1"
       tgtscale="10"
       tgtlength="100"
       tgtlength_rdm="0.3;1" />
    <inkscape:path-effect
       effect="sketch"
       id="path-effect3384"
       is_visible="true"
       nbiter_approxstrokes="5"
       strokelength="100"
       strokelength_rdm="0.3;1"
       strokeoverlap="0.3"
       strokeoverlap_rdm="0.3;1"
       ends_tolerance="0.1;1"
       parallel_offset="5;1"
       tremble_size="5;1"
       tremble_frequency="1"
       nbtangents="5"
       tgt_places_rdmness="1;1"
       tgtscale="10"
       tgtlength="100"
       tgtlength_rdm="0.3;1" />
    <inkscape:path-effect
       effect="sketch"
       id="path-effect3378"
       is_visible="true"
       nbiter_approxstrokes="5"
       strokelength="100"
       strokelength_rdm="0.3;1"
       strokeoverlap="0.3"
       strokeoverlap_rdm="0.3;1"
       ends_tolerance="0.1;1"
       parallel_offset="5;1"
       tremble_size="5;1"
       tremble_frequency="1"
       nbtangents="5"
       tgt_places_rdmness="1;1"
       tgtscale="10"
       tgtlength="100"
       tgtlength_rdm="0.3;1" />
    <inkscape:path-effect
       effect="sketch"
       id="path-effect3369"
       is_visible="true"
       nbiter_approxstrokes="5"
       strokelength="100"
       strokelength_rdm="0.3;1"
       strokeoverlap="0.3"
       strokeoverlap_rdm="0.3;1"
       ends_tolerance="0.1;1"
       parallel_offset="5;1"
       tremble_size="5;1"
       tremble_frequency="1"
       nbtangents="5"
       tgt_places_rdmness="1;1"
       tgtscale="10"
       tgtlength="100"
       tgtlength_rdm="0.3;1" />
    <inkscape:path-effect
       effect="sketch"
       id="path-effect3361"
       is_visible="true"
       nbiter_approxstrokes="5"
       strokelength="100"
       strokelength_rdm="0.3;1"
       strokeoverlap="0.3"
       strokeoverlap_rdm="0.3;1"
       ends_tolerance="0.1;1"
       parallel_offset="5;1"
       tremble_size="5;1"
       tremble_frequency="1"
       nbtangents="5"
       tgt_places_rdmness="1;1"
       tgtscale="10"
       tgtlength="100"
       tgtlength_rdm="0.3;1" />
    <filter
       inkscape:label="Basic Diffuse Bump"
       inkscape:menu="Bumps"
       inkscape:menu-tooltip="Matte emboss effect"
       style="color-interpolation-filters:sRGB"
       id="filter3349">
      <feColorMatrix
         result="result2"
         type="luminanceToAlpha"
         in="SourceGraphic"
         id="feColorMatrix3351" />
      <feDiffuseLighting
         lighting-color="#ffffff"
         in="result2"
         diffuseConstant="0.5"
         result="result1"
         surfaceScale="15"
         id="feDiffuseLighting3353">
        <feDistantLight
           azimuth="225"
           elevation="10"
           id="feDistantLight3355" />
      </feDiffuseLighting>
      <feComposite
         result="result9"
         operator="arithmetic"
         k2="1"
         k3="0.8"
         in2="SourceGraphic"
         id="feComposite3357"
         k1="0"
         k4="0" />
      <feComposite
         in2="SourceGraphic"
         result="result7"
         operator="in"
         in="result9"
         id="feComposite3359" />
    </filter>
  </defs>
  <sodipodi:namedview
     id="base"
     pagecolor="#ffffff"
     bordercolor="#666666"
     borderopacity="1.0"
     inkscape:pageopacity="0.0"
     inkscape:pageshadow="2"
     inkscape:zoom="0.7"
     inkscape:cx="543.90018"
     inkscape:cy="56.954251"
     inkscape:document-units="px"
     inkscape:current-layer="svg2"
     showgrid="false"
     inkscape:window-width="1440"
     inkscape:window-height="855"
     inkscape:window-x="1651"
     inkscape:window-y="115"
     inkscape:window-maximized="0"
     fit-margin-top="0"
     fit-margin-left="0"
     fit-margin-right="0"
     fit-margin-bottom="0" />
  <metadata
     id="metadata7">
    <rdf:RDF>
      <cc:Work
         rdf:about="">
        <dc:format>image/svg+xml</dc:format>
        <dc:type
           rdf:resource="http://purl.org/dc/dcmitype/StillImage" />
        <dc:title></dc:title>
      </cc:Work>
    </rdf:RDF>
  </metadata>
  <path
     inkscape:original-d="M 77.316208,159.26426 85.887628,312.12141 603.03049,507.83569 607.31621,323.54998 Z"
     inkscape:path-effect="#path-effect3361"
     inkscape:connector-curvature="0"
     id="path3347"
     d="M 80.728756,173.66785 C 83.412612,199.53542 83.889016,226.8563 84.436391,253.8508 M 82.191464,224.28269 C 83.054439,247.76289 85.099779,271.9953 87.571677,296.37076 M 80.226671,286.6765 C 80.349934,296.24054 80.745376,305.78158 81.306045,315.25825 95.460996,320.21129 110.01303,325.00964 124.56369,329.49923 M 114.55605,326.36319 C 145.64507,338.64529 174.53019,349.44682 205.18227,361.64878 M 171.66914,343.15113 C 197.24604,352.45695 225.85066,362.36315 255.68333,371.34252 M 235.00585,370.17348 C 258.07762,379.92375 283.45115,387.0662 309.73107,392.87519 M 286.06337,390.61863 C 308.6187,399.44023 333.21304,407.98188 358.61361,416.25243 M 347.80407,406.36549 C 370.1751,414.42376 391.15277,423.69082 411.42657,433.83911 M 396.56524,429.7765 C 426.12039,441.22403 453.72807,450.4836 481.53273,458.98884 M 460.9151,448.80609 C 488.67376,460.9374 518.53531,471.63197 548.96603,484.40037 M 520.86598,476.63255 C 547.83615,486.72515 572.62013,496.00178 597.92,505.23845 M 574.01477,493.04275 C 582.53739,496.33863 590.8372,499.44995 598.99735,502.42244 599.61806,480.84829 599.39263,458.43302 599.56075,435.85831 M 597.86025,467.94591 C 599.56368,440.35053 600.38142,414.57581 602.53529,391.19013 M 605.87811,404.86448 C 605.50992,381.56236 605.76325,357.97021 605.12722,336.01644 M 607.09361,346.13191 C 607.33317,337.67636 607.46914,329.32876 607.51119,321.04855 589.88616,315.57781 571.80672,310.43308 553.37577,305.18263 M 571.95352,313.48137 C 542.25093,305.29269 514.61093,296.39883 487.75494,288.95065 M 511.32121,294.93571 C 480.97379,286.00335 449.43645,273.71732 418.52783,259.9506 M 444.06481,269.49707 C 412.96245,260.60299 382.23547,251.91782 352.21445,245.69639 M 377.42896,247.64392 C 351.41151,239.77858 326.46372,230.90743 302.91928,221.53716 M 310.43088,236.73157 C 282.74745,227.1649 254.84793,218.2453 229.23541,208.33667 M 253.23278,216.08639 C 223.56569,206.39161 192.86474,196.36794 162.24838,185.00294 M 191.25742,194.0478 C 159.1091,182.76809 129.66052,175.37815 100.23169,167.20617 M 124.69999,177.23418 C 108.78182,171.99184 92.830448,166.28636 76.876132,159.89849 77.716707,173.45741 78.554953,186.47672 79.412147,198.80226 M 71.39778,171.28074 C 72.645088,204.0174 75.932195,237.34592 79.435176,270.23003 M 78.976025,231.36613 C 81.07703,257.02566 81.913179,282.46375 82.648918,309.43412 87.427636,311.80011 92.201784,314.23582 96.982667,316.75829 M 85.614556,305.13913 C 85.717273,307.91794 85.822991,310.70312 85.930614,313.49455 105.18372,320.98119 124.54471,328.82193 143.54663,336.96896 M 132.39528,334.3492 C 160.08288,343.79164 187.38414,354.56425 215.28692,364.69206 M 190.97329,357.26228 C 213.40401,366.57967 236.80778,374.97019 259.62131,383.21953 M 243.06906,378.87529 C 269.26518,389.35099 296.33332,397.33286 324.25554,403.98224 M 298.6201,389.71907 C 328.81703,400.34951 361.08192,414.20534 393.2626,428.12926 M 365.73296,425.59065 C 390.96642,436.49147 417.50975,445.65458 444.6425,455.52372 M 435.31079,439.79183 C 461.44358,449.80903 487.00214,459.63852 512.6137,469.76948 M 490.04163,465.429 C 519.19414,476.20836 545.9128,488.15293 571.75602,501.18049 M 548.95031,484.48231 C 567.20594,491.29445 585.88027,498.50338 604.62961,505.88721 604.9982,494.61337 605.39186,483.39799 605.74418,472.19819 M 609.93392,493.07727 C 611.91021,463.82231 611.45037,435.61712 611.55675,409.06058 M 601.05422,443.63123 C 601.43369,413.38638 603.33558,382.15907 605.86653,351.34824 M 604.28617,361.20552 C 603.99895,345.64471 604.29071,330.7336 604.78886,316.06392 596.31536,313.52949 587.91687,311.08282 579.51175,308.63443 M 597.45103,324.15204 C 567.04516,314.12545 531.95767,303.94935 494.90361,292.75952 M 535.59234,306.53921 C 506.20785,297.63655 475.1924,287.87351 445.72333,278.76121 M 462.49417,270.57237 C 439.19983,263.59954 416.74941,257.23155 395.1264,251.88499 M 411.07398,271.00879 C 381.58873,262.78177 355.91008,252.73249 331.2359,242.12817 M 348.43058,243.85992 C 317.54772,233.28096 289.69425,226.38738 262.66246,219.8362 M 290.64492,230.23555 C 266.28964,222.73442 242.42288,215.31871 218.50962,207.87897 M 233.02372,208.49097 C 207.59074,201.87159 183.4776,193.75151 158.80929,185.8075 M 172.0034,190.09134 C 147.95448,182.68118 125.56806,175.79159 103.18411,168.95678 M 115.89359,178.80962 C 102.55055,175.14124 89.49018,170.91257 76.682314,166.3566 78.097869,181.47298 79.832182,196.1762 81.84247,210.79675 M 77.322066,171.28231 C 79.25196,204.0826 81.422496,237.30984 84.095358,270.97406 M 76.600201,238.22196 C 78.727867,262.73678 80.823005,288.01537 84.105059,313.2147 89.500314,315.14245 94.949463,317.0666 100.4643,318.979 M 85.152928,303.23799 C 85.318486,306.18769 85.46076,309.139 85.57972,312.09131 113.41014,322.58592 138.83208,333.18443 161.81392,343.25983 M 142.32483,335.49843 C 172.97974,345.75806 199.69951,355.91244 226.242,363.80781 M 205.71238,351.69849 C 234.19799,361.57926 263.38765,373.72979 291.65902,385.19158 M 275.31485,380.32645 C 302.1642,390.99285 328.71621,399.34037 355.77608,406.80696 M 326.67359,397.09452 C 351.84938,405.79203 379.20985,418.3618 406.25774,432.06156 M 378.26227,431.81045 C 402.7974,441.38139 428.06537,450.6659 454.22684,460.22504 M 440.37514,445.50136 C 470.92142,456.74353 500.42833,468.00041 529.17611,478.50108 M 507.84152,474.04227 C 531.9914,484.15994 558.30648,494.27025 584.6186,505.45075 M 562.26703,493.16967 C 574.59946,497.34263 587.52094,502.19104 600.86433,507.40819 601.85615,494.14988 603.27816,481.26755 604.9583,468.44544 M 610.51149,483.26271 C 611.18416,456.47504 609.90438,431.52261 606.78413,407.49595 M 597.3027,426.37193 C 599.00929,396.87647 600.71271,366.0471 604.88273,334.63969 M 608.472,355.82456 C 608.22472,342.99849 608.17936,330.71026 608.10579,318.84196 591.60496,314.77885 575.05375,311.46559 557.90299,308.62078 M 578.73785,317.32374 C 549.23332,307.95246 518.15336,297.48701 487.57495,285.95955 M 516.59925,296.10872 C 491.86031,287.5426 468.38338,280.69573 445.43238,273.74997 M 458.55161,271.4975 C 434.59997,264.17209 411.63172,257.11535 388.58958,250.16589 M 406.74102,264.78565 C 376.24208,256.38094 348.89514,247.43353 321.3485,239.55458 M 342.05751,241.45083 C 318.66654,234.38069 296.93974,227.92258 276.50408,222.25746 M 295.57706,230.48041 C 270.87818,221.88856 246.038,214.91818 220.6715,207.78243 M 238.82912,207.49382 C 216.77589,199.4033 192.62647,193.03854 167.63183,186.84898 M 175.74665,197.18974 C 151.30129,190.39938 126.38522,181.3402 102.5691,171.99681 M 116.53877,170.30026 C 102.61528,166.03198 88.416512,161.65497 74.119956,157.25578 74.668515,168.03474 75.165709,178.80205 75.6791,189.59066 M 78.774934,162.34783 C 79.553891,195.13981 80.779321,226.70618 79.440163,257.95114 M 84.08305,222.99455 C 84.355763,249.83671 87.888581,277.35043 92.091368,304.29017 92.562395,304.44333 93.033607,304.59634 93.504991,304.74918 M 91.698059,294.74429 C 92.068529,301.11489 92.463327,307.52116 92.882727,313.9408 109.68621,319.86527 126.67059,325.88805 143.84133,331.56466 M 119.06253,326.21652 C 143.96782,337.17133 168.6862,345.85165 192.02772,354.86648 M 182.66987,344.47656 C 211.99087,353.9318 237.40565,366.93966 261.31094,380.33285 M 240.31464,369.25663 C 268.12023,379.48926 298.69136,389.51598 328.6973,397.30947 M 300.30814,391.86886 C 323.26508,400.81257 344.86741,408.96168 366.30379,417.154 M 347.38633,416.91593 C 369.69549,425.75245 392.95504,434.00195 417.4093,442.34141 M 404.67487,430.80657 C 426.29435,440.17439 450.37822,448.31042 475.22214,456.42796 M 465.55499,452.86292 C 490.63703,462.4668 514.94262,471.20038 538.02497,479.13754 M 510.3883,473.53525 C 538.62906,482.8128 568.42698,496.10407 599.99153,510.01099 600.40796,507.29754 600.84247,504.59039 601.29525,501.88602 M 582.58941,500.76798 C 588.81812,503.05813 595.14374,505.46918 601.54474,507.98475 601.97989,489.99079 602.95178,472.74108 604.05149,455.92423 M 609.26036,467.94109 C 610.96542,443.63117 610.29756,421.34989 608.95494,399.74567 M 604.22018,418.10698 C 603.78337,394.88375 604.50258,369.40223 604.81443,342.96485 M 607.21563,361.11562 C 607.45196,349.50634 607.58828,337.96065 607.61536,326.4481 592.61754,321.90773 577.42546,317.42628 562.01721,312.93149 M 577.12657,313.2592 C 553.75294,305.38454 530.66803,297.76365 508.77365,289.61044 M 521.11791,290.1455 C 497.75941,283.75717 475.95399,277.07181 454.79864,271.12727 M 470.15548,277.14522 C 446.27757,269.03839 423.65328,262.03328 402.06972,254.8959 M 417.28425,267.70167 C 392.76978,260.67924 370.48575,253.31261 348.54109,245.94354 M 362.40381,245.18909 C 334.16926,237.27941 304.01906,228.13039 272.4642,219.89446 M 304.94243,230.94451 C 282.34867,223.61681 260.24869,216.11122 238.50631,207.87988 M 239.97594,215.38879 C 212.15566,206.49575 185.73447,197.67877 160.7164,188.29587 M 178.87726,186.4224 C 153.21964,179.94348 129.40312,172.95014 105.4798,167.49455 M 124.23512,178.24221 C 106.35143,173.59556 89.611771,168.04931 73.432263,162.20457 74.810279,173.98877 76.44268,185.63741 78.150771,197.33446 M 86.27256,158.43562 C 88.046245,181.77343 88.640847,207.20628 88.732487,232.8912 M 84.637017,222.67974 C 86.991267,253.79211 88.374726,282.31986 90.438377,310.57341 92.185899,311.108 93.935951,311.64158 95.688908,312.17466 M 90.422795,285.44387 C 90.942549,292.80287 91.468572,300.32884 92.016931,308.01411 110.23862,315.49461 128.60859,324.03257 147.40161,333.4966 M 121.82073,328.66002 C 151.40288,341.28059 183.49047,351.66764 214.67767,362.72206 M 179.17945,351.67259 C 201.40648,359.97666 224.88041,368.48995 248.42156,376.59417 M 239.70873,379.08793 C 271.76359,392.21182 301.99473,400.97329 333.69414,409.5344 M 309.28772,391.49811 C 335.83018,400.05055 361.60497,411.3157 388.46205,422.94151 M 369.8195,413.49475 C 398.43194,424.39923 424.76257,434.41013 452.08729,444.95885 M 426.53535,442.03148 C 454.01673,451.77311 480.37002,460.9405 505.24929,467.82343 M 488.24806,464.67162 C 509.94298,473.85655 531.3679,480.27436 552.26928,485.27547 M 538.54711,483.44885 C 560.26368,492.52363 582.30594,501.18404 603.89169,510.44465 603.86065,503.18786 603.78387,495.99122 603.63653,488.8869 M 603.97528,511.97105 C 605.1408,512.36531 606.31023,512.764 607.48337,513.16685 607.37947,486.33583 608.7518,461.15478 610.05177,435.3746 M 607.18017,449.99035 C 608.31737,417.08403 609.49174,385.31892 611.75385,352.58405 M 604.16502,383.83549 C 605.45114,364.8877 606.58624,345.38841 608.42966,325.81495 597.00282,321.88214 585.89005,317.91645 575.34507,314.05879 M 597.959,315.39245 C 575.63301,308.40365 552.71888,301.81646 529.34263,295.5449 M 551.27166,304.975 C 520.14273,296.12049 489.71715,286.46844 456.57259,277.00821 M 488.15365,287.72954 C 458.2378,277.62966 428.74085,269.6798 397.04036,260.99928 M 420.04813,266.82567 C 397.0445,259.30119 373.00243,252.4122 348.1458,245.628 M 363.60645,246.87144 C 338.04371,239.06778 314.38138,232.01223 291.58682,225.58913 M 304.02989,226.16457 C 276.87164,217.22411 249.97029,210.20068 223.0538,203.84353 M 244.57545,209.58132 C 217.67153,201.57189 192.63292,193.3593 168.65409,185.33836 M 182.53808,191.28488 C 156.79008,182.44615 132.99487,176.39174 109.03569,170.92781 M 129.53667,177.08977 C 111.91007,172.09918 94.840474,167.11192 77.853207,162.39353 78.652038,175.9937 79.495778,189.74054 80.193182,203.74105 M 634.06223,331.84052 480.41504,284.21404 M 226.74253,205.58239 89.661488,163.09096 M 358.84622,246.53098 216.39237,202.37412 M 75.539704,308.20521 253.38584,375.51161 M 601.70793,564.70588 605.64945,395.22046"
     style="fill:none;fill-rule:evenodd;stroke:#000000;stroke-width:1px;stroke-linecap:butt;stroke-linejoin:miter;stroke-opacity:1;filter:url(#filter3349)"
     transform="matrix(0.39528624,0,0,0.43722397,2.1819499,17.971586)" />
  <path
     inkscape:connector-curvature="0"
     id="path3365"
     d="M 239.91842,160.41511 238.789,244.73687 403.11514,155.41827 407.6327,89.210065 Z"
     style="fill:#d4d4d4;fill-opacity:1;fill-rule:evenodd;stroke:#000000;stroke-width:0.41572663px;stroke-linecap:butt;stroke-linejoin:miter;stroke-opacity:1" />
  <path
     inkscape:original-d="M 241.04779,159.1659 239.9184,243.48766 404.24455,154.16906 408.76212,87.960855 Z"
     inkscape:path-effect="#path-effect3369"
     style="fill:none;fill-opacity:1;fill-rule:evenodd;stroke:#000000;stroke-width:0.41572663px;stroke-linecap:butt;stroke-linejoin:miter;stroke-opacity:1"
     d="M 244.00774,173.57914 C 244.80467,198.64116 243.53582,225.06323 242.26383,251.2342 243.0011,250.82454 243.73837,250.41459 244.47571,250.0043 M 241.23672,224.28422 C 241.05042,229.7841 240.92881,235.32513 240.8622,240.89951 256.98974,232.08467 273.70751,223.6277 290.67564,215.25469 M 270.62327,228.36087 C 291.38513,216.06304 313.91715,203.61562 336.44547,190.33259 M 327.3831,201.06798 C 354.99355,187.80553 380.64603,173.22773 407.66565,159.74705 407.83676,157.97851 408.01295,156.21406 408.19497,154.45422 M 380.64544,161.34759 C 386.77131,157.72235 393.09484,154.13631 399.586,150.56398 401.45022,129.21343 404.73777,107.97937 408.706,86.231602 M 406.72132,114.19787 C 407.02606,106.17945 407.57249,97.887201 408.31314,89.364472 392.80477,95.538822 378.14149,100.71031 363.89235,105.27253 M 372.85866,102.36802 C 349.21382,112.10693 327.60798,121.56588 306.80837,130.75373 M 327.05402,120.25019 C 305.97948,129.17107 283.51159,139.30074 260.33983,150.31164 M 272.94084,145.70376 C 262.62105,150.43362 252.02592,154.85414 241.26946,159.04155 240.80444,177.66545 239.89509,195.64732 239.06243,213.33547 M 242.9137,164.08749 C 242.08216,190.20775 242.67654,215.35379 243.84047,241.48578 248.86557,239.17827 253.91684,236.91607 258.98585,234.71851 M 240.11445,234.64166 C 240.21911,237.60656 240.29889,240.56217 240.35706,243.50943 262.67375,232.02808 283.47592,219.96166 304.68977,207.86334 M 281.93278,212.51768 C 309.73194,198.96972 334.86173,183.21059 360.7698,167.13615 M 338.26624,186.52398 C 359.08858,175.88729 379.32209,166.46101 400.17117,158.55326 400.72235,154.0867 401.30509,149.69802 401.93338,145.39077 M 399.8547,156.14614 C 401.40356,155.35592 402.95594,154.56405 404.51118,153.77136 405.24707,132.75246 406.39679,111.61542 406.84902,91.778722 406.32496,92.04491 405.80048,92.311876 405.27556,92.579642 M 408.12056,100.40702 C 408.48006,95.422156 408.80342,90.474961 409.09263,85.557074 389.13785,93.659364 368.51688,102.33329 347.40141,110.85848 M 365.32931,106.28926 C 336.68679,119.09137 310.10687,131.18831 284.31095,144.73093 M 307.00253,133.39612 C 285.96829,143.00282 264.31753,150.87194 242.72849,157.70198 242.56825,165.89647 242.41736,173.93351 242.31583,181.85429 M 240.97336,164.20454 C 240.71381,190.089 240.67911,216.09859 241.02251,243.27862 247.71023,240.30622 254.4302,237.43368 261.18624,234.68703 M 239.49986,232.02222 C 239.48228,234.26243 239.47174,236.49603 239.46839,238.7233 261.88673,226.77979 285.23121,214.02158 309.76075,200.84189 M 280.1123,219.71394 C 307.53731,204.69333 334.74624,190.31978 364.24216,174.95721 M 343.5242,187.13229 C 363.14493,176.36843 382.26131,165.44411 401.25442,154.01439 401.7561,144.13966 402.23481,134.17072 402.7212,124.07982 M 404.32144,151.91809 C 405.16594,129.35634 407.18534,108.48737 409.61024,87.969968 399.87072,92.822448 390.2391,97.768486 380.60978,102.62396 M 404.07847,92.858591 C 375.10027,104.64288 346.00356,114.77405 316.99237,121.77375 M 335.72585,118.84981 C 304.61511,131.45073 275.54417,144.6435 246.6891,157.39186 M 275.18155,136.54395 C 263.27062,142.34129 250.98754,148.07347 238.51814,154.02038 238.09007,171.44486 237.37699,189.19783 236.73052,207.8089 M 241.22094,162.17365 C 240.44791,185.89754 239.893,210.08405 238.87724,234.66367 M 242.18947,222.19538 C 242.19886,230.8095 242.17239,239.54709 242.138,248.35228 260.14169,238.49796 278.10409,228.99586 296.35733,219.182 M 273.34402,230.83395 C 294.35963,219.3852 316.3483,207.00958 337.74672,194.49279 M 322.14868,204.15109 C 346.75705,191.32715 372.23745,176.00937 398.57191,159.3591 M 374.1377,162.72358 C 382.19676,157.92654 390.42324,153.39063 398.76756,149.04312 400.46063,127.31405 402.80539,106.62681 405.15711,86.035587 403.80508,86.736893 402.45308,87.438659 401.10091,88.140571 M 403.70672,119.1049 C 404.16507,111.18972 404.74412,103.11442 405.4237,94.947357 388.14841,102.66335 371.40239,109.89627 354.94225,117.47166 M 383.10874,100.99524 C 357.96707,112.03049 332.25116,122.87804 306.58827,134.02704 M 322.26775,128.92708 C 297.3596,139.71447 270.45275,151.45876 242.70695,164.09873 242.43189,167.15069 242.14784,170.21224 241.85608,173.28332 M 242.62024,161.97794 C 241.84355,188.10384 241.80774,214.93186 241.70383,241.93971 246.07674,239.69873 250.44728,237.46399 254.81021,235.23212 M 246.79494,224.90398 C 246.91375,228.85208 246.98965,232.81867 247.02964,236.80516 270.11611,225.04591 291.66998,214.13604 313.64973,204.46621 M 283.04214,226.76321 C 309.76151,212.59824 338.00329,197.45081 366.87414,182.71986 M 343.3936,179.2076 C 362.06265,167.50598 382.03674,157.2688 402.055,147.11444 402.18483,145.64163 402.31486,144.1692 402.4447,142.69673 M 395.91517,163.35692 C 399.18645,161.60162 402.40127,159.84451 405.56322,158.08446 407.03701,135.7785 406.52015,113.36155 404.84354,90.569132 397.2867,93.111738 389.61038,95.615662 381.84205,98.07216 M 413.81792,102.68898 C 414.08808,100.14302 414.34746,97.591377 414.59779,95.034863 388.39564,106.90882 361.03476,118.16019 334.97915,129.96084 M 350.79296,102.82147 C 328.3446,112.60013 306.74016,122.98365 285.96313,134.38858 M 301.35365,142.48191 C 280.6725,151.2898 262.00176,159.13528 244.26594,166.50473 244.93958,174.20643 245.74541,181.84083 246.62624,189.43378 M 481.46292,57.094895 333.3957,119.95853 M 335.14097,119.21756 203.03826,175.30328 M 382.59674,99.069667 245.31635,157.35363 M 157.23608,288.4292 324.30736,197.61849 M 323.3244,198.15278 472.27456,117.19171"
     id="path3367"
     inkscape:connector-curvature="0" />
  <path
     sodipodi:nodetypes="ccccc"
     inkscape:connector-curvature="0"
     id="path3380"
     d="M 35.804195,86.544473 246.23498,157.6522 409.94774,84.336159 C 408.42371,73.647096 280.97404,46.500366 209.89877,28.244967 151.86724,47.678134 37.518314,74.897854 35.804195,86.544473 Z"
     style="fill:#797979;fill-opacity:1;fill-rule:evenodd;stroke:#000000;stroke-width:0.41572663px;stroke-linecap:butt;stroke-linejoin:miter;stroke-opacity:1" />
  <path
     inkscape:original-d="M 31.617442,86.910359 242.04823,158.01809 405.76098,84.702046 C 404.23696,74.012982 276.78728,46.866252 205.71198,28.610853 147.68047,48.04402 33.331545,75.26374 31.617442,86.910359 Z"
     inkscape:path-effect="#path-effect3384"
     style="fill:none;fill-rule:evenodd;stroke:#000000;stroke-width:0.41572663px;stroke-linecap:butt;stroke-linejoin:miter;stroke-opacity:1"
     d="M 40.844982,96.889039 C 67.426812,104.57145 91.801191,113.70718 116.24654,122.51654 M 96.702654,106.11206 C 118.88694,113.36782 142.25359,121.37579 166.0468,129.52681 M 144.93206,130.31063 C 167.40339,137.8408 191.64489,145.22137 215.88268,151.76634 M 205.67303,149.19452 C 219.03815,153.955 232.00583,158.44848 244.88016,162.8956 261.68996,155.63073 278.32839,148.28075 295.55174,141.39434 M 262.65159,143.58003 C 287.58984,131.33637 315.5558,119.69309 344.74981,107.12299 M 324.55956,122.39383 C 347.05448,112.68006 371.85116,100.35846 397.55422,86.70341 M 374.28401,97.858788 C 383.00292,93.828597 392.0423,89.754404 401.32534,85.636762 401.28714,85.299971 401.12719,84.946452 400.85312,84.577027 400.57901,84.207551 400.1905,83.821829 399.69446,83.420564 398.70222,82.617901 397.27967,81.752973 395.47944,80.829823 391.88132,78.984722 386.76854,76.904487 380.58059,74.628551 375.34594,72.703244 369.27149,70.612695 362.70762,68.420278 M 383.59374,69.211344 C 377.81472,67.290703 371.16312,65.357394 363.69447,63.466483 354.74095,61.199632 344.83959,59.050229 334.02386,57.044161 327.48581,55.831503 320.71093,54.689123 313.70743,53.612099 M 327.0464,58.364738 C 307.89892,53.783917 287.77395,48.46738 266.41704,42.274317 256.14822,39.296571 246.03052,36.241484 236.29063,33.193654 M 264.26019,38.006876 C 244.3597,34.243091 223.56962,29.439145 208.72745,25.957522 200.45842,29.176632 189.5058,33.280354 179.41824,37.271236 M 198.27419,30.994904 C 185.66959,35.463704 171.24527,39.7609 155.0309,44.237761 143.30884,47.474276 131.44294,50.59057 119.63155,53.751543 M 134.15561,43.13392 C 120.72173,47.573676 106.89251,51.388134 93.456179,54.913314 79.719224,58.517367 80.18481,58.310757 67.590854,61.618877 60.183312,63.564654 53.580717,65.371022 47.814998,67.130105 M 69.716375,67.110878 C 68.529336,67.513432 67.357197,67.917267 66.200617,68.322235 58.658505,70.963056 51.872367,73.619659 46.078578,76.20485 40.306933,78.780161 35.603861,81.248597 32.300665,83.453188 30.6502,84.554728 29.346366,85.592405 28.435863,86.546403 27.980271,87.023758 27.621766,87.481562 27.36666,87.918218 27.111493,88.35498 26.959026,88.771699 26.915805,89.16958 38.152499,93.929593 49.460564,99.057788 60.997007,104.59433 M 41.004533,89.260556 C 63.282187,98.301912 86.18135,107.05323 108.19117,117.44294 M 95.174144,106.15866 C 120.28311,113.87131 144.33158,122.68911 167.63625,131.2832 M 150.57165,128.03786 C 179.01041,138.68039 209.51177,148.61775 240.79713,160.00079 M 216.38996,150.44789 C 225.62403,153.70273 234.75494,156.66682 243.8291,159.38797 264.77868,149.22899 285.40246,137.67504 306.33923,125.384 M 278.82139,138.13009 C 308.73949,125.556 339.03297,113.19082 370.03242,103.28938 M 341.42259,108.48294 C 362.82718,99.163687 385.00637,89.116076 408.16578,78.652344 408.14543,78.305197 408.00512,77.939186 407.75555,77.555168 407.5059,77.171018 407.14588,76.767329 406.6836,76.345224 405.75899,75.500975 404.42216,74.580136 402.72659,73.588005 401.67753,72.974169 400.49078,72.332818 399.17842,71.664951 M 390.08609,90.595296 C 392.61551,89.44372 395.14322,88.29726 397.67098,87.154764 397.63464,86.81456 397.47645,86.457083 397.20408,86.083244 396.93167,85.709359 396.54451,85.31842 396.04912,84.911643 395.05831,84.098069 393.63291,83.21978 391.8194,82.285267 388.17992,80.409825 383.02039,78.327949 376.64741,76.05987 370.2202,73.772494 362.82692,71.387622 354.49653,68.778193 346.6004,66.304796 336.89241,63.332218 328.04886,60.515538 327.09959,60.213197 326.14793,59.908806 325.19456,59.602355 M 349.50335,66.256919 C 343.10176,64.438127 336.35352,62.57696 329.22186,60.631225 308.37005,54.942218 286.1446,49.043192 263.3858,42.307881 261.26964,41.681618 259.16121,41.051735 257.06024,40.417618 M 286.52704,47.797778 C 279.70138,45.862027 273.00913,44.107832 266.43824,42.486003 245.71351,37.370718 223.09304,32.914805 207.46772,29.523375 203.33854,31.216831 198.85455,32.993482 194.19441,34.77413 M 218.81404,35.173686 C 214.10077,33.910849 209.57516,32.644948 205.23542,31.375053 190.64405,35.744182 172.84656,39.936573 153.83895,43.128211 145.28717,44.564173 136.66499,45.770346 128.00665,46.734411 M 147.83353,46.894813 C 147.83353,46.894813 147.82302,46.897681 147.82302,46.897681 128.32479,52.219556 109.36711,57.681414 91.793823,63.084341 83.150224,65.741825 74.89419,68.370865 67.511403,70.839273 63.086141,72.318844 58.914622,73.760662 55.092231,75.142936 M 84.516202,56.803081 C 79.349475,58.660797 74.460829,60.420762 69.682061,62.185044 61.893743,65.060427 54.942426,67.7488 48.879096,70.353869 42.864472,72.938013 37.953654,75.345037 34.460877,77.509326 32.719809,78.588174 31.339504,79.60202 30.365922,80.537831 29.87896,81.005901 29.49317,81.454966 29.213955,81.884257 28.934644,82.313697 28.76179,82.723518 28.699677,83.115583 37.521062,86.903441 46.296946,90.875465 55.095045,95.133638 M 39.843125,90.991179 C 61.900793,98.561473 84.176582,106.59439 105.99151,115.02041 M 94.655529,112.9163 C 122.69618,121.37272 150.35049,131.15931 178.60632,140.3011 M 154.01479,133.64747 C 176.74793,142.12019 200.45414,149.66606 223.5701,157.07074 M 206.81393,153.29605 C 217.86412,157.26381 229.06553,160.79909 240.41687,163.98578 255.75651,156.53322 271.39058,148.39609 287.3155,139.80517 M 262.15923,141.7103 C 291.60891,127.12686 323.12654,115.7688 354.55996,104.47883 M 327.69734,124.44656 C 352.24732,114.50948 378.10027,102.84387 404.54141,91.874121 404.53542,91.804633 404.52413,91.734449 404.50762,91.663593 M 395.87685,91.465981 C 402.0283,88.799865 408.14635,86.122833 414.2398,83.441745 414.19279,83.109846 414.02282,82.762114 413.73547,82.399641 413.44811,82.037152 413.04336,81.659902 412.52662,81.268707 411.49316,80.486326 410.01172,79.648135 408.12509,78.760271 404.354,76.985562 398.9547,75.008442 392.28282,72.887121 385.61753,70.767896 377.64917,68.494755 368.7888,66.150575 364.52481,65.022456 360.04659,63.875899 355.40296,62.72151 M 371.99047,71.116845 C 369.89431,70.503171 367.72196,69.887964 365.47528,69.272351 356.72295,66.87413 346.97525,64.505847 336.32469,62.205379 318.61664,58.38053 299.45773,54.966126 279.33388,51.909578 M 304.49596,50.031617 C 292.30461,46.968689 280.20142,44.088106 268.19105,41.310723 249.24354,36.929136 229.19926,32.511536 213.40687,28.883629 M 243.95806,29.618398 C 233.14284,26.958127 222.75054,24.616499 213.01583,22.495626 198.91646,27.750642 179.50074,34.482702 160.59797,41.699092 159.86423,41.979207 159.12956,42.260648 158.39406,42.543445 M 170.9985,47.019313 C 164.30919,49.108875 157.505,51.168504 150.5954,53.226337 131.46132,58.92489 113.30256,64.088701 95.860513,69.494509 92.126092,70.651917 88.495492,71.798927 84.970269,72.940714 M 108.53158,49.919817 C 103.93495,50.986444 99.461858,52.108346 95.126635,53.26623 85.942392,55.719228 77.304114,58.354064 69.587018,60.930721 61.892759,63.499754 54.881808,66.089009 49.105705,68.455072 45.895148,69.770212 43.003646,71.041632 40.508136,72.2437 M 58.074492,77.620564 C 56.203899,78.288146 54.399327,78.944009 52.674629,79.58687 46.810991,81.772472 41.887355,83.801459 38.365447,85.651464 36.605539,86.575917 35.20199,87.452337 34.203249,88.279496 33.704089,88.692901 33.307078,89.093152 33.01704,89.480252 32.726959,89.867408 32.544633,90.240423 32.47329,90.599315 53.265266,97.669654 72.132274,104.53905 90.023407,110.90539 M 38.758118,94.388908 C 70.190427,105.18401 99.991772,115.11872 131.33949,125.70418 M 95.620215,100.51449 C 118.725,108.56972 142.67371,117.2298 167.44983,126.91131 M 152.84467,136.13947 C 179.71715,146.16598 210.39622,154.37023 242.07976,162.01943 M 214.19927,149.15192 C 223.37397,151.94093 232.85255,155.09962 242.56487,158.52178 262.77168,150.23809 284.06637,143.18068 305.74469,136.28312 M 283.81902,149.69231 C 306.47552,139.356 329.62054,129.10512 352.71907,118.8302 M 335.28536,121.36891 C 357.52082,111.87474 381.07612,100.87989 404.07625,90.061104 M 384.42383,96.325843 C 391.44322,92.929504 398.64978,89.591772 405.9808,86.295051 405.93143,85.961189 405.75912,85.611457 405.46937,85.246528 405.17963,84.881622 404.77261,84.501696 404.25424,84.107609 403.21753,83.319449 401.73585,82.474954 399.85952,81.5822 396.10783,79.797147 390.77784,77.818865 384.27167,75.714102 378.03956,73.697995 370.7259,71.564769 362.60688,69.350455 M 375.39868,78.927481 C 370.34228,77.564194 365.16802,76.169608 359.31608,74.545621 350.43332,72.08054 341.38522,69.471797 331.35933,66.423682 318.55771,62.531679 306.12044,58.519155 292.82855,54.110287 M 313.35373,58.544288 C 297.94448,54.721162 282.21899,51.015027 266.60939,47.419792 248.34264,43.212558 234.71814,40.174426 218.79827,36.530001 M 241.26057,39.832438 C 228.23502,36.306766 212.54017,32.28606 202.02396,29.497274 189.69982,33.861638 173.21187,39.285175 158.10706,44.237178 M 182.21426,36.011849 C 173.28335,38.641618 163.5525,41.357375 153.26629,44.10948 132.71657,49.607617 112.03534,54.705146 90.406774,59.886553 86.070995,60.925245 81.873299,61.925647 77.661237,62.92883 M 114.73526,57.279095 C 108.94093,58.875174 103.17135,60.430019 97.367502,61.970816 87.912066,64.48103 79.940105,66.539683 71.299949,68.792145 63.162231,70.913624 55.509661,72.928578 49.172524,74.740064 42.767211,76.571039 37.51193,78.246986 33.779848,79.813942 31.913823,80.597413 30.436791,81.350113 29.381692,82.078691 28.854622,82.442649 28.435187,82.799011 28.125845,83.148066 27.816505,83.497119 27.618905,83.837128 27.533704,84.166205 28.542583,84.42851 29.551017,84.687759 30.559203,84.94384 M 36.193845,82.676321 C 65.056159,91.505018 94.622517,102.60347 123.27059,113.01318 M 106.61003,109.03168 C 133.80203,118.74111 160.69668,126.13168 188.09919,132.64132 M 158.73494,123.65993 C 184.25195,131.40445 211.95365,143.02123 239.34276,155.768 M 211.08769,156.24191 C 218.52875,158.84285 226.03552,161.41811 233.6123,163.98275 250.70468,156.63295 268.18036,149.22501 286.09459,141.95187 M 272.66008,141.30508 C 302.47057,127.72066 331.2417,114.15096 359.25371,99.825037 M 338.5658,117.18647 C 360.02013,107.63619 383.27306,98.0798 406.68307,89.333114 406.64842,89.017078 406.49221,88.687044 406.22228,88.347075 405.95223,88.006958 405.56819,87.656578 405.07622,87.297773 404.21451,86.669299 403.02121,86.014642 401.52694,85.34223 M 391.60517,89.542934 C 395.30641,87.645832 399.06344,85.812709 402.87139,84.034623 402.82384,83.694721 402.65362,83.338304 402.36676,82.965868 402.07995,82.593498 401.67644,82.205056 401.16291,81.802263 400.13612,80.996897 398.6679,80.133077 396.81507,79.229222 393.10003,77.416934 387.87188,75.457946 381.53433,73.472751 375.14701,71.471965 367.85208,69.509627 359.71786,67.546769 354.10304,66.191864 348.28557,64.883146 342.14017,63.55021 M 367.51345,63.511838 C 358.69291,60.892746 348.90057,58.42083 338.05637,56.113712 321.88862,52.674002 304.42417,49.818408 285.45439,47.29502 M 294.56017,51.897498 C 283.1794,49.1481 271.79133,46.220707 260.52788,43.109832 243.05424,38.28375 227.0488,33.337003 213.13202,28.493029 M 240.58756,31.422989 C 228.2952,28.287326 216.96409,25.807731 206.61134,23.712064 188.58508,30.435036 176.19997,35.058171 152.91434,44.203607 152.91412,44.203694 152.60116,44.32662 152.60094,44.326707 M 173.53946,39.638847 C 166.62497,41.759806 159.38902,43.844088 151.88281,45.896558 132.59703,51.16999 113.38182,55.737222 94.65339,60.091624 90.544262,61.047005 85.773929,62.15128 81.918161,63.048138 M 111.03671,57.44982 C 106.40427,58.579798 101.88703,59.761961 97.506022,60.97748 88.51181,63.472941 80.053567,66.120174 72.493422,68.708915 64.948582,71.292416 58.137904,73.872672 52.52147,76.245393 47.654865,78.301341 43.572037,80.24801 40.50595,82.010633 M 53.054278,67.864357 C 51.840319,68.287919 50.665843,68.707411 49.532768,69.122301 43.458778,71.346372 38.552948,73.445869 35.119088,75.344195 33.400188,76.294447 32.045243,77.196852 31.093074,78.043338 30.616892,78.466667 30.241206,78.876212 29.97091,79.2711 29.700605,79.666001 29.535646,80.04631 29.480919,80.411325 44.046684,85.39467 58.850465,90.461781 73.624683,95.571816 M 372.98663,69.303527 216.66085,31.382696 M 141.82302,46.240007 5.0980227,89.863497 M 216.59335,26.375267 73.255336,67.571625 M 65.073505,98.215666 245.22242,159.0907 M 409.8781,87.729898 399.36667,78.247941"
     id="path3382"
     inkscape:connector-curvature="0"
     sodipodi:nodetypes="ccccc" />
  <path
     sodipodi:nodetypes="ccccc"
     inkscape:connector-curvature="0"
     id="path3397"
     d="M 77.93649,124.90485 C 92.714586,129.2254 106.80899,133.99607 120.61243,138.9101 120.48643,144.95805 120.3132,151.02927 120.11843,157.10369 114.44932,155.03033 108.7596,152.96003 103.07329,150.87405 M 118.34606,145.31911 C 118.33445,145.89929 118.32356,146.47993 118.31339,147.06101 101.76427,140.46109 85.833476,134.25287 70.228281,128.20041 70.484018,123.0834 70.768732,117.98026 71.074651,112.88471 71.648289,113.08317 72.56397,113.39998 73.137607,113.59844 M 64.524419,132.02566 C 64.387046,127.49259 64.306581,122.95471 64.272798,118.40807 80.106892,123.58645 96.627801,128.63589 113.25852,133.33325 113.34691,136.47848 113.4394,139.61055 113.53183,142.72785 M 79.500162,122.05058 C 93.345792,127.02951 106.76401,131.72131 120.09395,136.37202 120.14793,142.44324 120.18553,148.50684 120.23384,154.58247 109.40115,150.44955 98.609232,146.36243 88.059168,142.46698 M 105.17666,143.42047 C 90.991062,137.6991 77.630565,132.14135 64.839144,126.52995 65.239569,121.23976 65.71076,115.94289 66.241489,110.62983 74.843055,113.13431 83.596364,115.59751 92.455737,117.98066 M 76.385631,119.13038 C 89.44375,124.14252 103.22144,128.33939 117.47481,131.94377 117.79204,137.53037 118.19367,143.01183 118.66147,148.40482 114.18533,145.96231 109.7595,143.45253 105.37188,140.88653 M 112.79906,148.70314 C 112.78103,149.32437 112.76427,149.94542 112.74876,150.5663 96.064841,144.22929 80.365907,137.75507 65.228511,131.1467 65.623804,125.86385 66.069072,120.56906 66.553073,115.26242 68.23514,115.75848 69.921049,116.25337 71.610448,116.74709 M 71.653831,123.01505 C 71.783119,119.03675 71.872939,115.09269 71.926579,111.18131 88.122975,116.82923 103.63833,123.09225 118.74109,129.84286 118.59224,132.38975 118.43541,134.94606 118.27133,137.51146 M 70.268612,115.51497 C 86.374489,121.17254 101.91513,126.19507 117.22586,130.80674 117.1004,136.55016 116.94462,142.23936 116.77456,147.8851 108.94165,144.4263 101.08246,140.88745 93.23716,137.29539 M 119.24468,144.01817 C 119.23811,144.36739 119.2318,144.71644 119.22574,145.06532 102.66098,139.51686 86.785754,133.50626 71.308591,127.70069 71.602523,122.65733 71.931882,117.63223 72.288927,112.64309 79.661989,115.31941 87.090409,118.06763 94.55231,120.93784 M 73.600025,116.46952 C 88.933529,121.66928 103.57603,126.61114 118.00769,131.43299 117.95291,137.38304 117.86602,143.31481 117.77556,149.2365 112.10982,146.97437 106.44055,144.70224 100.79588,142.42822 M 112.56535,141.61043 C 112.6023,142.40238 112.63748,143.19288 112.67096,143.98194 97.178898,138.03864 80.815902,131.36558 64.257884,124.33444 64.229372,118.92547 64.183502,113.48463 64.138222,108.02179 70.248148,109.82357 76.359023,111.58988 82.507585,113.34092 M 173.36525,171.39092 23.495998,112.95339 M 67.716806,194.69866 69.513202,51.19428 M 142.93519,159.52552 3.9840419,105.34522 M 0.04470108,91.456952 179.99833,152.90684 M 195.8835,180.17131 37.934845,118.58343"
     style="fill:none;fill-opacity:1;stroke:#0d0d0d;stroke-width:0.27664992;stroke-opacity:1"
     inkscape:path-effect="#path-effect3399"
     inkscape:original-d="M 68.715649,114.90645 117.2486,131.4793 117.25293,149.51141 68.52033,130.50943 Z" />
  <path
     inkscape:original-d="M 148.99633,144.77497 197.52927,161.34782 197.53362,179.37994 148.80102,160.37795 Z"
     inkscape:path-effect="#path-effect3405"
     style="fill:none;fill-opacity:1;stroke:#0d0d0d;stroke-width:0.27664992;stroke-opacity:1"
     d="M 158.21717,154.77337 C 172.99526,159.09392 187.08967,163.86459 200.89311,168.77862 200.76711,174.82658 200.59388,180.89779 200.39912,186.97222 194.73001,184.89886 189.04029,182.82856 183.35398,180.74258 M 198.62674,175.18764 C 198.61514,175.76782 198.60425,176.34846 198.59408,176.92954 182.04496,170.32962 166.11417,164.1214 150.50897,158.06893 150.76471,152.95192 151.04942,147.84878 151.35533,142.75323 151.92898,142.9517 152.84464,143.2685 153.41828,143.46696 M 144.80511,161.89418 C 144.66773,157.36111 144.58726,152.82323 144.55348,148.27659 160.38757,153.45497 176.90847,158.50441 193.53919,163.20177 193.62758,166.34701 193.72008,169.47908 193.81251,172.59638 M 159.78084,151.9191 C 173.62647,156.89803 187.04469,161.58983 200.37462,166.24054 200.4286,172.31176 200.46621,178.37536 200.51453,184.451 189.68184,180.31808 178.88992,176.23095 168.33986,172.33551 M 185.45735,173.289 C 171.27175,167.56763 157.91126,162.00987 145.11983,156.39847 145.52026,151.10828 145.99144,145.81141 146.52217,140.49835 155.12374,143.00283 163.87704,145.46603 172.73641,147.84918 M 156.66631,148.9989 C 169.72443,154.01104 183.50212,158.20792 197.75548,161.81229 198.07272,167.39889 198.47435,172.88036 198.94216,178.27335 194.46602,175.83084 190.04019,173.32106 185.65257,170.75505 M 193.07975,178.57167 C 193.06172,179.1929 193.04496,179.81395 193.02945,180.43483 176.34553,174.09782 160.6466,167.6236 145.5092,161.01522 145.90449,155.73237 146.34976,150.43758 146.83375,145.13094 148.51582,145.627 150.20173,146.12189 151.89113,146.61561 M 151.93452,152.88357 C 152.0638,148.90527 152.15362,144.96121 152.20726,141.04983 168.40365,146.69775 183.91901,152.96077 199.02176,159.71138 198.87291,162.25827 198.71608,164.81459 198.55201,167.37998 M 150.54929,145.38349 C 166.65517,151.04106 182.19581,156.06359 197.50653,160.67527 197.38108,166.41868 197.2253,172.10789 197.05525,177.75363 189.22234,174.29483 181.36315,170.75597 173.51785,167.16391 M 199.52537,173.8867 C 199.5188,174.23592 199.51249,174.58497 199.50643,174.93385 182.94167,169.38539 167.06644,163.37478 151.58928,157.56921 151.88321,152.52586 152.21257,147.50075 152.56961,142.51161 159.94267,145.18793 167.37109,147.93615 174.83299,150.80636 M 153.88071,146.33804 C 169.21421,151.5378 183.8567,156.47966 198.28836,161.30151 198.23359,167.25156 198.1467,173.18333 198.05625,179.10503 192.39051,176.84289 186.72124,174.57077 181.07658,172.29674 M 192.84604,171.47896 C 192.88299,172.27091 192.91817,173.06141 192.95165,173.85047 177.45959,167.90717 161.09659,161.23411 144.53857,154.20296 144.51006,148.79399 144.46419,143.35315 144.4189,137.89031 150.52883,139.69209 156.6397,141.4584 162.78826,143.20944 M 253.64594,201.25946 103.77669,142.8219 M 147.99753,224.56718 149.79385,81.0628 M 223.21587,189.39406 84.264737,135.21373 M 80.325384,121.32547 260.27901,182.77537 M 276.16419,210.03985 118.21554,148.45195"
     id="path3403"
     inkscape:connector-curvature="0"
     sodipodi:nodetypes="ccccc" />
  <ellipse
     cx="358.72845"
     cy="47.390797"
     rx="11.834681"
     ry="4.8641076"
     transform="matrix(0.99530716,0.09676596,-0.0792162,0.99685746,0,0)"
     id="path3373"
     style="fill:#3771c8;fill-opacity:1;stroke:#000000;stroke-width:0.41575888" />
  <path
     inkscape:connector-curvature="0"
     inkscape:original-d="M 364.27142,83.983097 A 11.835054,4.8631993 5.7580811 0 1 352.10696,87.686729 11.835054,4.8631993 5.7580811 0 1 340.71314,81.692708 11.835054,4.8631993 5.7580811 0 1 352.8776,77.989084 11.835054,4.8631993 5.7580811 0 1 364.27142,83.983097 Z"
     inkscape:path-effect="#path-effect3378"
     id="ellipse3375"
     d="M 362.23284,95.307854 C 360.25141,95.656417 357.86154,95.678254 355.41775,95.37114 352.39135,94.990807 349.49303,94.132438 347.39489,92.97316 346.35509,92.398645 345.54203,91.766738 345.00559,91.1108 344.46913,90.454823 344.21995,89.787848 344.27511,89.144721 344.33026,88.501635 344.68874,87.894926 345.33094,87.357401 345.97292,86.820046 346.88569,86.36269 348.01501,86.012302 350.29729,85.304194 353.31799,85.076598 356.40847,85.382599 359.49907,85.688613 362.40287,86.50249 364.49252,87.639932 365.52676,88.202889 366.3305,88.828541 366.85667,89.479912 367.38277,90.131198 367.62216,90.79673 367.55621,91.437971 367.49022,92.079645 367.11978,92.685368 366.45961,93.223101 365.79959,93.760704 364.86325,94.219431 363.70086,94.574148 361.35439,95.290203 358.22718,95.539982 355.0021,95.269355 351.77598,94.99864 348.71844,94.229488 346.49681,93.130346 345.39675,92.586102 344.53629,91.977915 343.961,91.340396 343.3856,90.702753 343.10808,90.049712 343.13597,89.418756 343.16384,88.78833 343.49606,88.193142 344.10487,87.670288 344.65751,87.195679 345.42929,86.788018 346.38154,86.466763 M 357.41328,85.355053 C 356.03227,85.411656 354.57987,85.3596 353.12864,85.201548 349.96022,84.856478 346.98191,84.027363 344.83807,82.888301 343.77616,82.32409 342.95011,81.700236 342.40523,81.050909 341.86043,80.401674 341.6071,79.739288 341.65953,79.100933 341.71195,78.462609 342.0692,77.860192 342.71223,77.328526 343.35529,76.796845 344.27187,76.346112 345.41158,76.003173 347.71431,75.310288 350.78487,75.099524 353.96545,75.422159 357.14444,75.744635 360.16786,76.573431 362.36659,77.722904 363.45526,78.292047 364.30797,78.922411 364.87701,79.578283 365.44631,80.234469 365.71978,80.902237 365.68831,81.547361 365.65686,82.192043 365.32147,82.801772 364.70925,83.34369 364.09697,83.885667 363.21881,84.350049 362.1296,84.711428 359.93015,85.441164 357.00029,85.708987 354.00334,85.46096 351.00482,85.212802 348.18022,84.468548 346.15237,83.392318 345.14853,82.859557 344.37003,82.261077 343.86437,81.632543 343.61145,81.318151 343.42857,80.998394 343.31948,80.678573 M 353.23041,91.453415 C 351.5407,91.586351 349.7136,91.549821 347.88445,91.345568 344.65284,90.984709 341.62535,90.124753 339.44095,88.951322 338.35968,88.370474 337.5177,87.730166 336.96,87.066466 336.40217,86.402618 336.13924,85.728101 336.18229,85.077465 336.22532,84.426969 336.57343,83.81129 337.20458,83.261818 337.83577,82.712305 338.73878,82.238894 339.86241,81.866792 342.13105,81.115505 345.16707,80.820315 348.30725,81.037089 351.44693,81.253828 354.43605,81.964951 356.60494,83.011075 357.67942,83.52933 358.51941,84.113945 359.07838,84.731337 359.63725,85.348619 359.90283,85.985339 359.86343,86.600045 359.82405,87.21442 359.48082,87.792296 358.85801,88.292543 358.23495,88.792991 357.34474,89.205911 356.23978,89.504269 354.00669,90.107239 351.04139,90.204741 347.99482,89.760596 344.94924,89.316595 342.07509,88.367915 340.00386,87.119217 338.97891,86.501298 338.18085,85.827721 337.65934,85.136592 337.13764,84.445202 336.90108,83.747989 336.96931,83.076157 337.00038,82.770262 337.0944,82.471063 337.25097,82.180615 M 365.44593,89.533011 C 365.34932,89.647556 365.24194,89.759653 365.12409,89.869056 364.5231,90.426982 363.6555,90.909686 362.57459,91.28918 360.38974,92.056255 357.4639,92.35734 354.43308,92.126472 351.40347,91.895696 348.52204,91.152401 346.43638,90.070484 345.40405,89.534971 344.59882,88.932802 344.06954,88.300451 343.54038,87.668228 343.29731,87.017947 343.35891,86.390754 343.42054,85.763237 343.78576,85.172174 344.43771,84.65291 345.08958,84.133705 346.01431,83.697223 347.16031,83.368407 349.47396,82.704565 352.54684,82.51968 355.70015,82.856217 358.85427,83.192841 361.83304,84.023791 363.98771,85.171035 365.05458,85.739079 365.88705,86.367692 366.43826,87.021628 366.98955,87.675661 367.24869,88.342081 367.20262,88.985054 367.15656,89.627928 366.80626,90.235288 366.17357,90.774266 365.54088,91.313253 364.63784,91.773541 363.51719,92.12979 361.25406,92.849229 358.2405,93.101726 355.14751,92.838195 352.05446,92.574658 349.13437,91.816802 347.03235,90.73313 345.99125,90.196404 345.18178,89.595536 344.6502,88.965134 344.11885,88.335013 343.87532,87.68715 343.93727,87.06297 343.99924,86.438578 344.36564,85.850847 345.0206,85.337505 345.67557,84.824162 346.6056,84.395702 347.76136,84.079115 350.09635,83.439509 353.20461,83.296174 356.42705,83.694894 356.74532,83.734275 357.06323,83.778769 357.38007,83.828283 M 356.01591,83.900498 C 356.01591,83.900498 355.97714,83.91104 355.97714,83.91104 353.62448,84.546968 350.52108,84.697791 347.36993,84.32873 344.21641,83.959392 341.27217,83.100184 339.16124,81.932173 338.11621,81.353942 337.30598,80.716734 336.77559,80.056262 336.24531,79.395924 336.00382,78.723705 336.06839,78.076445 336.13299,77.428847 336.50284,76.816922 337.1635,76.272176 337.82404,75.72752 338.76263,75.260626 339.93067,74.897229 342.28942,74.163384 345.44242,73.895241 348.72257,74.147887 352.00081,74.400387 355.13573,75.152737 357.42899,76.235229 358.56521,76.77156 359.45879,77.372039 360.0636,78.003196 360.66879,78.634735 360.97,79.281462 360.96647,79.907435 360.96295,80.532222 360.65574,81.122023 360.08156,81.636704 359.50694,82.151779 358.67491,82.583068 357.6423,82.903611 355.55523,83.551475 352.7791,83.708733 349.95221,83.332815 347.12447,82.956783 344.47639,82.078192 342.59489,80.887586 341.66427,80.2987 340.94773,79.649672 340.4956,78.979704 340.04378,78.310192 339.86142,77.627921 339.98342,76.972943 340.10575,76.316122 340.53203,75.696424 341.26677,75.138372 342.00069,74.580954 343.02552,74.098355 344.29471,73.713906 345.14201,73.457251 346.08846,73.247344 347.11145,73.088801 M 329.38548,79.90691 365.81125,76.064563 M 357.51531,77.013346 367.99227,85.575736 M 340.58437,73.550753 375.76668,84.519408 M 375.80654,86.285395 337.68746,89.211012 M 316.51057,162.4864 365.07343,0.05951236"
     style="fill:none;fill-opacity:1;stroke:#000000;stroke-width:0.41572663" />
</svg>
